# AST/ASF file generated using VICON BodyLanguage
# -----------------------------------------------
:version 1.10
:name VICON
:units
  mass 1.0
  length 0.45
  angle deg
:documentation
   .ast/.asf automatically generated from VICON data using
   VICON BodyBuilder and BodyLanguage model FoxedUp or BRILLIANT.MOD
:root
   order TX TY TZ RX RY RZ
   axis XYZ
   position 0 0 0  
   orientation 0 0 0 
:bonedata
  begin
     id 1 
     name lhipjoint
     direction 0.523584 -0.783993 0.333487 
     length 2.44404 
     axis 0 0 0  XYZ
  end
  begin
     id 2 
     name lfemur
     direction 0.34202 -0.939693 0  
     length 7.29523  
     axis 0 0 20  XYZ
    dof rx ry rz
    limits (-160.0 20.0)
           (-70.0 70.0)
           (-60.0 70.0)
  end
  begin
     id 3 
     name ltibia
     direction 0.34215 -0.939645 0   
     length 7.81194   
     axis 0 0 20   XYZ
    dof rx
    limits (-10.0 170.0)
  end
  begin
     id 4 
     name lfoot
     direction 0.0941847 -0.25877 0.961336   
     length 2.41437   
     axis -90 7.62852e-016 20   XYZ
    dof rx rz
    limits (-45.0 90.0)
           (-70.0 20.0)
  end
  begin
     id 5 
     name ltoes
     direction 1.53526e-011 -4.21768e-011 1   
     length 1.2048   
     axis -90 7.62852e-016 20   XYZ
    dof rx
    limits (-90.0 20.0)
  end
  begin
     id 6 
     name rhipjoint
     direction -0.46599 -0.814191 0.346332   
     length 2.35339  
     axis 0 0 0  XYZ 
  end
  begin
     id 7 
     name rfemur
     direction -0.34202 -0.939693 0   
     length 7.34966   
     axis 0 0 -20   XYZ
    dof rx ry rz
    limits (-160.0 20.0)
           (-70.0 70.0)
           (-70.0 60.0)
  end
  begin
     id 8 
     name rtibia
     direction -0.34202 -0.939693 0   
     length 7.89934   
     axis 0 0 -20   XYZ
    dof rx
    limits (-10.0 170.0)
 end
 begin
     id 9 
     name rfoot
     direction -0.0975468 -0.268008 0.958466   
     length 2.27725  
     axis -90 -7.62852e-016 -20   XYZ
    dof rx rz
    limits (-45.0 90.0)
           (-20.0 70.0)
  end
  begin
     id 10 
     name rtoes
     direction -1.53563e-011 -4.22022e-011 1   
     length 1.13683   
     axis -90 -7.62852e-016 -20   XYZ
    dof rx
    limits (-90.0 20.0)
  end
  begin
     id 11 
     name lowerback
     direction -0.00456414 0.999242 -0.0386661   
     length 2.16968   
     axis 0 0 0   XYZ
    dof rx ry rz
    limits (-20.0 45.0)
           (-30.0 30.0)
           (-30.0 30.0)
  end
  begin
     id 12 
     name upperback
     direction 0.0297078 0.998988 0.0337799   
     length 2.15674   
     axis 0 0 0   XYZ
    dof rx ry rz
    limits (-20.0 45.0)
           (-30.0 30.0)
           (-30.0 30.0)
  end
  begin
     id 13 
     name thorax
     direction 0.0309305 0.998202 0.0513506   
     length 2.16319   
     axis 0 0 0   XYZ
    dof rx ry rz
    limits (-20.0 45.0)
           (-30.0 30.0)
           (-30.0 30.0)
  end
  begin
     id 14 
     name lowerneck
     direction -0.103039 0.983474 0.148872   
     length 1.64318   
     axis 0 0 0   XYZ
    dof rx ry rz
    limits (-20.0 45.0)
           (-30.0 30.0)
           (-30.0 30.0)
  end
  begin
     id 15 
     name upperneck
     direction 0.128124 0.971079 -0.201469   
     length 1.68242   
     axis 0 0 0   XYZ
    dof rx ry rz
    limits (-20.0 45.0)
           (-30.0 30.0)
           (-30.0 30.0)
  end
  begin
     id 16
     name head
     direction 0.0496365 0.994919 -0.0875941  
     length 1.70108  
     axis 0 0 0   XYZ
    dof rx ry rz
    limits (-20.0 45.0)
           (-30.0 30.0)
           (-30.0 30.0)
  end
  begin
     id 17 
     name lclavicle
     direction 0.887148 0.430222 -0.166967  
     length 3.25763  
     axis 0 0 0   XYZ
    dof ry rz
    limits (-20.0 10.0)
           (0.0 20.0)
  end
  begin
     id 18 
     name lhumerus
     direction 1 -4.48962e-011 1.92156e-027   
     length 5.10755   
     axis 180 -30 -90   XYZ
    dof rx ry rz
    limits (-60.0 90.0)
           (-90.0 90.0)
           (-90.0 90.0)
  end
  begin
     id 19
     name lradius
     direction 1 -4.48958e-011 7.10963e-027   
     length 3.36253   
     axis 180 -30 -90   XYZ
    dof rx
    limits (-10.0 170.0)
  end
  begin
     id 20
     name lwrist
     direction 1 -4.48946e-011 1.82396e-026   
     length 1.68127   
     axis -1.15222e-014 90 90   XYZ
    dof ry
    limits (-180.0 0.0)
 end
  begin
     id 21 
     name lhand
     direction 1 -4.48919e-011 3.64759e-026   
     length 0.619088   
     axis -2.32787e-014 90 90   XYZ
    dof rx rz
    limits (-90.0 90.0)
           (-45.0 45.0)
  end
  begin
     id 22 
     name lfingers
     direction 1 -4.49012e-011 7.29744e-026   
     length 0.499125   
     axis -4.6558e-014 90 90   XYZ
    dof rx
    limits (0.0 90.0)
  end
  begin
     id 23
     name lthumb
     direction 0.707107 -6.35028e-011 0.707107   
     length 0.716646   
     axis -90 45 3.78391e-014   XYZ
    dof rx rz
    limits (-45.0 45.0)
           (-45.0 45.0)
  end
  begin
     id 24 
     name rclavicle
     direction -0.82886 0.533198 -0.169384   
     length 3.20647  
     axis 0 0 0   XYZ 
    dof ry rz
    limits (-10.0 20.0)
           (-20.0 0.0)
  end
  begin
     id 25 
     name rhumerus
     direction -1 -4.48973e-011 3.06863e-027  
     length 5.27387   
     axis 180 30 90   XYZ
    dof rx ry rz
    limits (-90.0 60.0)
           (-90.0 90.0)
           (-90.0 90.0)
  end
  begin
     id 26 
     name rradius
     direction -1 -4.48988e-011 9.4797e-027   
     length 3.40144   
     axis 180 30 90   XYZ
    dof rx
    limits (-10.0 170.0)
  end
  begin
     id 27 
     name rwrist
     direction -1 -4.48897e-011 1.82366e-026   
     length 1.70072   
     axis -1.15222e-014 -90 -90   XYZ
    dof ry
    limits (-180.0 0.0)
  end
  begin
     id 28
     name rhand
     direction -1 -4.48965e-011 3.64815e-026   
     length 0.742821   
     axis -2.32787e-014 -90 -90   XYZ
    dof rx rz
    limits (-90.0 90.0)
           (-45.0 45.0)
  end
  begin
     id 29
     name rfingers
     direction -1 -4.49016e-011 7.29754e-026   
     length 0.598881   
     axis -4.6558e-014 -90 -90   XYZ
    dof rx
    limits (0.0 90.0)
  end
  begin
     id 30
     name rthumb
     direction -0.707107 -6.3488e-011 0.707107   
     length 0.859877   
     axis -90 -45 -3.78391e-014   XYZ
    dof rx rz
    limits (-45.0 45.0)
           (-45.0 45.0)
  end
:hierarchy
  begin
    root lhipjoint rhipjoint lowerback
    lhipjoint lfemur
    lfemur ltibia
    ltibia lfoot
    lfoot ltoes
    rhipjoint rfemur
    rfemur rtibia
    rtibia rfoot
    rfoot rtoes
    lowerback upperback
    upperback thorax
    thorax lowerneck lclavicle rclavicle
    lowerneck upperneck
    upperneck head
    lclavicle lhumerus
    lhumerus lradius
    lradius lwrist
    lwrist lhand lthumb
    lhand lfingers
    rclavicle rhumerus
    rhumerus rradius
    rradius rwrist
    rwrist rhand rthumb
    rhand rfingers
  end

#!OML:ASF F:\Work\Patient Classification 1\justin\Session 1\justin.ASF
:FULLY-SPECIFIED
:DEGREES
2929
root -0.0639235 18.6606 -6.41589 13.3239 17.3265 -4.16414
lowerback 16.9974 3.17281 -0.780198
upperback 2.45624 4.22145 2.2427
thorax -7.10805 2.10006 1.87179
lowerneck -21.9485 -7.61098 -16.2134
upperneck 14.8052 -7.68976 11.6122
head 9.36624 -3.33103 5.55362
rclavicle 6.44062e-014 -3.1408e-014
rhumerus 67.88 4.7177 -69.9788
rradius 20.4874
rwrist -11.1795
rhand -27.592 7.10767
rfingers 7.12502
rthumb -0.991876 -22.8698
lclavicle 6.44062e-014 -3.1408e-014
lhumerus 69.0884 -8.57043 72.5342
lradius 20.9294
lwrist 20.2132
lhand -9.25222 39.6481
lfingers 7.12502
lthumb 16.7036 68.9494
rfemur -21.9049 -7.09728 27.4573
rtibia 15.0355
rfoot -4.41668 -12.0563
rtoes -7.90473
lfemur -24.2832 -5.31503 -11.5478
ltibia 15.569
lfoot -2.15649 -9.5439
ltoes -17.8387
2930
root -0.0715782 18.6591 -6.40968 13.3267 17.2702 -4.12699
lowerback 17.0044 3.2199 -0.935278
upperback 2.45591 4.25423 2.23205
thorax -7.12412 2.11981 1.93986
lowerneck -21.7864 -7.66438 -16.2453
upperneck 14.5888 -7.78951 11.7249
head 9.28532 -3.37064 5.5809
rclavicle 5.32743e-014 -3.10104e-014
rhumerus 67.6314 5.07994 -68.8658
rradius 21.0564
rwrist -12.2653
rhand -27.5895 7.02498
rfingers 7.12502
rthumb -0.989427 -22.9525
lclavicle 5.32743e-014 -3.10104e-014
lhumerus 68.9493 -8.75265 72.2196
lradius 21.1616
lwrist 20.4983
lhand -9.05799 39.3945
lfingers 7.12502
lthumb 16.8906 68.68
rfemur -21.9073 -6.90344 27.4048
rtibia 15.1033
rfoot -4.50453 -12.2489
rtoes -7.95405
lfemur -24.2553 -5.21021 -11.5975
ltibia 15.5431
lfoot -2.19307 -9.59071
ltoes -18.3157
2931
root -0.079691 18.6593 -6.40122 13.3198 17.2409 -4.12791
lowerback 16.9444 3.26408 -1.03627
upperback 2.47872 4.29322 2.22629
thorax -7.07554 2.1412 1.98504
lowerneck -21.6947 -7.72687 -16.2727
upperneck 14.4365 -7.90541 11.8829
head 9.24374 -3.41155 5.62197
rclavicle -2.78299e-015 2.38542e-014
rhumerus 67.3994 5.26317 -68.3573
rradius 21.3964
rwrist -12.7237
rhand -27.6657 7.2067
rfingers 7.12502
rthumb -1.06308 -22.7704
lclavicle -2.78299e-015 2.38542e-014
lhumerus 68.8179 -8.94523 71.9523
lradius 21.445
lwrist 20.7381
lhand -8.65424 38.4351
lfingers 7.12502
lthumb 17.2792 67.6869
rfemur -21.8789 -6.71774 27.403
rtibia 15.1463
rfoot -4.57305 -12.3914
rtoes -7.84037
lfemur -24.2319 -5.14836 -11.5747
ltibia 15.5413
lfoot -2.25132 -9.60002
ltoes -18.5735
2932
root -0.0816517 18.6601 -6.39585 13.225 17.3573 -4.18359
lowerback 17.0039 3.23497 -0.907683
upperback 2.48082 4.27662 2.2059
thorax -7.09393 2.1294 1.89184
lowerneck -21.7255 -7.7632 -16.2199
upperneck 14.4423 -7.98135 11.9463
head 9.26371 -3.43646 5.62378
rclavicle -2.64384e-014 2.34566e-014
rhumerus 67.107 5.17281 -69.1209
rradius 21.3668
rwrist -12.0501
rhand -27.6138 7.68333
rfingers 7.12502
rthumb -1.01288 -22.294
lclavicle -2.64384e-014 2.34566e-014
lhumerus 68.5492 -9.21011 71.4625
lradius 21.9573
lwrist 21.4146
lhand -8.25306 38.5112
lfingers 7.12502
lthumb 17.6653 67.7288
rfemur -21.7563 -6.77493 27.4701
rtibia 15.1307
rfoot -4.63614 -12.3828
rtoes -7.68709
lfemur -24.1994 -5.13179 -11.523
ltibia 15.5869
lfoot -2.19877 -9.72668
ltoes -18.2334
2933
root -0.075786 18.6605 -6.39346 13.0658 17.4801 -4.25171
lowerback 17.153 3.15868 -0.678783
upperback 2.50793 4.21606 2.18453
thorax -7.12515 2.09333 1.74775
lowerneck -21.8857 -7.76936 -16.1617
upperneck 14.4883 -7.98532 11.9469
head 9.30527 -3.4301 5.61303
rclavicle -3.18055e-015 1.63003e-014
rhumerus 66.8526 5.42746 -68.3942
rradius 21.9124
rwrist -12.9303
rhand -27.4202 7.71065
rfingers 7.12502
rthumb -0.825917 -22.2675
lclavicle -3.18055e-015 1.63003e-014
lhumerus 68.2744 -9.34678 71.2454
lradius 22.4501
lwrist 21.7658
lhand -8.56589 39.8349
lfingers 7.12502
lthumb 17.3643 69.0792
rfemur -21.5961 -7.10863 27.5626
rtibia 15.1061
rfoot -4.67495 -12.1514
rtoes -7.63134
lfemur -24.0918 -5.25218 -11.4714
ltibia 15.6469
lfoot -2.15013 -9.72902
ltoes -17.6285
